<svg width="63" height="62" viewBox="0 0 63 62" fill="none" xmlns="http://www.w3.org/2000/svg">
<path fill-rule="evenodd" clip-rule="evenodd" d="M31.9214 0C14.8002 0 0.921387 13.8794 0.921387 30.9996C0.921387 48.1208 14.8002 62 31.9214 62C49.0415 62 62.9214 48.1208 62.9214 30.9996C62.9214 13.8794 49.0415 0 31.9214 0Z" fill="#2A64F6"/>
<path fill-rule="evenodd" clip-rule="evenodd" d="M40.0859 24.018L39.6424 29.5809H33.7279V48.9084H26.2572V29.5809H22.27V24.018H26.2572V20.2792C26.2572 18.6344 26.3005 16.0914 27.5411 14.5168C28.8482 12.8519 30.6434 11.7197 33.7281 11.7197C38.7555 11.7197 40.8753 12.4095 40.8753 12.4095L39.8782 18.1073C39.8782 18.1073 38.2176 17.6438 36.6669 17.6438C35.1163 17.6438 33.7281 18.1776 33.7281 19.6741V24.018H40.0859Z" fill="white"/>
</svg>
