<svg width="43" height="42" viewBox="0 0 43 42" fill="none" xmlns="http://www.w3.org/2000/svg">
<path fill-rule="evenodd" clip-rule="evenodd" d="M21.4468 0C9.81919 0 0.393555 9.40217 0.393555 20.9997C0.393555 32.5979 9.81919 42 21.4468 42C33.0737 42 42.5 32.5979 42.5 20.9997C42.5 9.40217 33.0737 0 21.4468 0Z" fill="black"/>
<path fill-rule="evenodd" clip-rule="evenodd" d="M26.9916 16.2705L26.6904 20.0389H22.6737V33.1318H17.6001V20.0389H14.8922V16.2705H17.6001V13.7378C17.6001 12.6236 17.6294 10.9009 18.472 9.83424C19.3597 8.70639 20.5789 7.93945 22.6738 7.93945C26.0881 7.93945 27.5278 8.40673 27.5278 8.40673L26.8505 12.2665C26.8505 12.2665 25.7228 11.9525 24.6696 11.9525C23.6166 11.9525 22.6738 12.3141 22.6738 13.3279V16.2705H26.9916Z" fill="white"/>
</svg>
