<svg width="43" height="42" viewBox="0 0 43 42" fill="none" xmlns="http://www.w3.org/2000/svg">
<path fill-rule="evenodd" clip-rule="evenodd" d="M21.3936 42C32.9915 42 42.3936 32.598 42.3936 21C42.3936 9.40202 32.9915 0 21.3936 0C9.79557 0 0.393555 9.40202 0.393555 21C0.393555 32.598 9.79557 42 21.3936 42Z" fill="black"/>
<path fill-rule="evenodd" clip-rule="evenodd" d="M15.7116 30.6761V17.867H11.7526V30.6761H15.7116ZM15.7116 13.3267C15.688 12.1804 14.9241 11.3076 13.683 11.3076C12.4416 11.3076 11.6305 12.1804 11.6305 13.3267C11.6305 14.4481 12.418 15.3461 13.6355 15.3461H13.6591C14.9241 15.3461 15.7116 14.4481 15.7116 13.3267ZM22.1705 30.6761V23.3781C22.1705 22.9875 22.1987 22.5969 22.3136 22.3185C22.6276 21.5377 23.3422 20.7295 24.5422 20.7295C26.1142 20.7295 27.1001 21.6216 27.1001 23.3781V30.6761H31.0858V23.1828C31.0858 19.1687 28.943 17.3009 26.0848 17.3009C23.7413 17.3009 22.7127 18.6111 22.1415 19.5028L22.1701 17.7897H18.1913C18.2485 19.0159 18.1913 30.6761 18.1913 30.6761H22.1705Z" fill="white"/>
</svg>
