<svg width="62" height="62" viewBox="0 0 62 62" fill="none" xmlns="http://www.w3.org/2000/svg">
<path fill-rule="evenodd" clip-rule="evenodd" d="M31 62C48.1208 62 62 48.1208 62 31C62 13.8792 48.1208 0 31 0C13.8792 0 0 13.8792 0 31C0 48.1208 13.8792 62 31 62Z" fill="#2C64BC"/>
<path fill-rule="evenodd" clip-rule="evenodd" d="M22.6124 45.284V26.3752H16.7682V45.284H22.6124ZM22.6124 19.6729C22.5776 17.9808 21.4499 16.6924 19.6178 16.6924C17.7853 16.6924 16.5879 17.9808 16.5879 19.6729C16.5879 21.3283 17.7505 22.6539 19.5477 22.6539H19.5825C21.4499 22.6539 22.6124 21.3283 22.6124 19.6729ZM32.147 45.284V34.5107C32.147 33.9341 32.1886 33.3576 32.3582 32.9465C32.8217 31.794 33.8767 30.6009 35.6481 30.6009C37.9686 30.6009 39.4239 31.9178 39.4239 34.5107V45.284H45.3076V34.2224C45.3076 28.2969 42.1445 25.5396 37.9252 25.5396C34.4658 25.5396 32.9473 27.4737 32.1041 28.7901L32.1464 26.2611H26.2729C26.3574 28.0713 26.2729 45.284 26.2729 45.284H32.147Z" fill="white"/>
</svg>
