<svg width="43" height="42" viewBox="0 0 43 42" fill="none" xmlns="http://www.w3.org/2000/svg">
<path fill-rule="evenodd" clip-rule="evenodd" d="M21.5532 0C9.92563 0 0.5 9.40217 0.5 20.9997C0.5 32.5979 9.92563 42 21.5532 42C33.1801 42 42.6065 32.5979 42.6065 20.9997C42.6065 9.40217 33.1801 0 21.5532 0Z" fill="black"/>
<path d="M23.6336 19.2857L31.9734 9.7998H29.9974L22.7527 18.0345L16.9706 9.7998H10.3L19.0457 22.2533L10.3 32.1998H12.2761L19.922 23.5016L26.0295 32.1998H32.7L23.6336 19.2857ZM20.9263 22.3626L20.0389 21.1217L12.9886 11.2574H16.0242L21.7156 19.2212L22.5993 20.4621L29.9965 30.8132H26.9609L20.9263 22.3626Z" fill="white"/>
</svg>
