<svg width="62" height="62" viewBox="0 0 62 62" fill="none" xmlns="http://www.w3.org/2000/svg">
<path fill-rule="evenodd" clip-rule="evenodd" d="M31 0C13.8788 0 0 13.8794 0 30.9996C0 48.1208 13.8788 62 31 62C48.1201 62 62 48.1208 62 30.9996C62 13.8794 48.1201 0 31 0Z" fill="black"/>
<path d="M34.0633 28.4698L46.3433 14.4668H43.4337L32.7662 26.6228L24.2523 14.4668H14.4302L27.3078 32.8505L14.4302 47.5335H17.3398L28.598 34.6933L37.5912 47.5335H47.4132L34.0633 28.4698ZM30.0769 33.0119L28.7702 31.1801L18.389 16.6186H22.8587L31.2391 28.3746L32.5404 30.2063L43.4323 45.4865H38.9626L30.0769 33.0119Z" fill="white"/>
</svg>
